<svg version="1.1" id="Layer_1" xmlns="http://www.w3.org/2000/svg" xmlns:xlink="http://www.w3.org/1999/xlink" x="0px" y="0px"
	 width="100%" viewBox="0 0 472 472" enable-background="new 0 0 472 472" xml:space="preserve">
<path fill="none" opacity="1.000000" stroke="none" 
	d="
M257.000000,473.000000 
	C171.333328,473.000000 86.166664,473.000000 1.000000,473.000000 
	C1.000000,315.666656 1.000000,158.333328 1.000000,1.000000 
	C158.333328,1.000000 315.666656,1.000000 473.000000,1.000000 
	C473.000000,158.333328 473.000000,315.666656 473.000000,473.000000 
	C401.166656,473.000000 329.333344,473.000000 257.000000,473.000000 
M381.826630,133.306427 
	C366.478333,116.400955 348.930420,102.413155 327.663116,92.253181 
	C319.522919,88.994774 311.548676,85.209770 303.209961,82.581139 
	C282.005066,75.896667 260.302429,72.652496 237.108719,74.853958 
	C235.113571,74.967453 233.098419,74.938271 231.126190,75.215065 
	C161.706604,84.958328 112.739243,121.794708 85.588600,186.497299 
	C74.268333,213.474609 70.692894,241.934174 74.520882,272.003113 
	C77.695724,285.479889 79.759262,299.343872 84.289917,312.348297 
	C92.316795,335.387970 105.168411,355.797913 122.850548,373.784424 
	C143.208084,394.711670 167.076096,410.012726 195.680801,419.152924 
	C217.641830,426.248535 240.137329,429.523163 263.137390,427.147736 
	C335.333008,419.691528 386.245117,382.551361 414.219604,315.666229 
	C430.539825,276.645752 431.033142,236.323090 417.748108,195.279556 
	C409.862213,172.491699 398.571625,151.687271 381.826630,133.306427 
z"/>
<path fill="#282E37" opacity="1.000000" stroke="none" 
	d="
M417.769684,196.005951 
	C431.033142,236.323090 430.539825,276.645752 414.219604,315.666229 
	C386.245117,382.551361 335.333008,419.691528 263.137390,427.147736 
	C240.137329,429.523163 217.641830,426.248535 195.385941,418.640259 
	C199.576019,410.619110 205.297318,404.559937 214.421356,401.999054 
	C220.064865,402.775330 225.269684,404.031433 230.513916,404.226135 
	C243.026413,404.690704 255.657349,405.719177 268.056244,404.556000 
	C284.215668,403.040039 299.672089,398.143127 314.639191,391.408508 
	C335.194031,382.159607 352.609009,368.838715 367.150482,352.014435 
	C383.379639,333.237518 394.602417,311.513794 400.287811,287.219788 
	C401.517426,281.965759 401.437714,276.405334 401.965668,270.656799 
	C402.018433,269.891418 402.066620,269.455292 402.428528,268.962189 
	C402.821777,267.934753 402.901337,266.964233 402.980286,265.565308 
	C403.409668,260.407043 403.839630,255.677200 404.257385,250.493347 
	C403.805603,245.366592 403.366028,240.693848 403.219421,235.781876 
	C402.668823,228.695770 401.825226,221.848892 401.261414,214.761963 
	C402.375092,210.494873 403.570770,206.655045 407.061951,204.029739 
	C410.626678,201.349136 414.200073,198.680069 417.769684,196.005951 
z"/>
<path fill="#353A42" opacity="1.000000" stroke="none" 
	d="
M74.590446,271.127686 
	C70.692894,241.934174 74.268333,213.474609 85.588600,186.497299 
	C112.739243,121.794708 161.706604,84.958328 231.126190,75.215065 
	C233.098419,74.938271 235.113571,74.967453 237.553253,75.317993 
	C236.904221,77.169731 235.879089,78.619247 234.697571,79.927513 
	C233.547287,81.201180 232.234894,82.328178 230.997223,83.523247 
	C229.435425,85.031311 228.102524,86.945320 226.271393,87.971077 
	C222.225357,90.237572 221.123337,94.350029 223.740692,98.286118 
	C194.609192,103.790009 169.031082,116.007179 147.140503,135.480789 
	C127.067459,153.337524 112.241226,174.980408 103.779457,200.570587 
	C97.091637,220.795975 93.369057,241.542358 95.629616,262.958191 
	C90.416512,258.549011 90.414337,258.546844 85.148239,263.833069 
	C83.631615,265.355499 82.311966,267.156616 80.573708,268.352966 
	C78.788391,269.581696 76.601555,270.227020 74.590446,271.127686 
z"/>
<path fill="#30353D" opacity="1.000000" stroke="none" 
	d="
M74.555664,271.565399 
	C76.601555,270.227020 78.788391,269.581696 80.573708,268.352966 
	C82.311966,267.156616 83.631615,265.355499 85.148239,263.833069 
	C90.414337,258.546844 90.416512,258.549011 95.631096,263.401428 
	C97.344856,282.352478 101.715759,300.067291 109.956757,316.653900 
	C113.454010,323.692810 117.953209,330.233887 122.032982,337.349792 
	C129.379623,346.465546 136.690338,355.232788 143.625656,363.994934 
	C139.210968,362.100586 134.755112,361.570648 132.472458,365.801819 
	C130.133072,370.138184 126.307281,371.363892 122.532906,373.169159 
	C105.168411,355.797913 92.316795,335.387970 84.289917,312.348297 
	C79.759262,299.343872 77.695724,285.479889 74.555664,271.565399 
z"/>
<path fill="#32373F" opacity="1.000000" stroke="none" 
	d="
M224.000443,98.003052 
	C221.123337,94.350029 222.225357,90.237572 226.271393,87.971077 
	C228.102524,86.945320 229.435425,85.031311 230.997223,83.523247 
	C232.234894,82.328178 233.547287,81.201180 234.697571,79.927513 
	C235.879089,78.619247 236.904221,77.169731 237.998993,75.395126 
	C260.302429,72.652496 282.005066,75.896667 303.209961,82.581139 
	C311.548676,85.209770 319.522919,88.994774 327.731506,92.845116 
	C324.453156,96.864479 320.918457,100.133797 317.843719,103.789940 
	C316.430359,105.470528 315.919006,107.909668 314.617615,109.998024 
	C303.070984,106.462440 291.995117,102.600700 280.698761,99.557419 
	C275.692780,98.208794 270.240845,98.515480 264.562195,98.072418 
	C259.515015,97.448601 254.896942,96.823112 249.814819,96.140343 
	C240.900650,96.723053 232.450546,97.363052 224.000443,98.003052 
z"/>
<path fill="#2B313A" opacity="1.000000" stroke="none" 
	d="
M122.691727,373.476807 
	C126.307281,371.363892 130.133072,370.138184 132.472458,365.801819 
	C134.755112,361.570648 139.210968,362.100586 143.926025,364.140564 
	C155.455368,374.329071 167.328110,383.014923 180.741806,389.204712 
	C189.200027,393.107788 198.226044,395.780365 207.223755,399.277039 
	C209.633621,400.364899 211.817108,401.180603 214.000610,401.996338 
	C205.297318,404.559937 199.576019,410.619110 195.048035,418.466553 
	C167.076096,410.012726 143.208084,394.711670 122.691727,373.476807 
z"/>
<path fill="#2B313A" opacity="1.000000" stroke="none" 
	d="
M417.758911,195.642761 
	C414.200073,198.680069 410.626678,201.349136 407.061951,204.029739 
	C403.570770,206.655045 402.375092,210.494873 400.985138,214.524826 
	C396.127472,203.037323 392.562897,191.195007 387.296539,180.165237 
	C382.897491,170.951828 376.506073,162.689743 370.992859,153.631195 
	C368.326294,148.969604 369.823425,145.918747 373.449158,142.903290 
	C376.605316,140.278381 379.184784,136.960098 382.019043,133.948212 
	C398.571625,151.687271 409.862213,172.491699 417.758911,195.642761 
z"/>
<path fill="#2E343C" opacity="1.000000" stroke="none" 
	d="
M381.922852,133.627319 
	C379.184784,136.960098 376.605316,140.278381 373.449158,142.903290 
	C369.823425,145.918747 368.326294,148.969604 370.690674,153.483231 
	C361.186707,144.903473 352.522064,135.419449 342.609772,127.496376 
	C334.150391,120.734642 324.257446,115.766434 314.998657,110.004852 
	C315.919006,107.909668 316.430359,105.470528 317.843719,103.789940 
	C320.918457,100.133797 324.453156,96.864479 327.944397,93.115555 
	C348.930420,102.413155 366.478333,116.400955 381.922852,133.627319 
z"/>
<path fill="#117982" opacity="1.000000" stroke="none" 
	d="
M404.269592,250.947357 
	C403.839630,255.677200 403.409668,260.407043 402.727356,265.780579 
	C402.354919,267.289246 402.234863,268.154205 402.114777,269.019135 
	C402.066620,269.455292 402.018433,269.891418 401.698090,270.913086 
	C393.545563,303.829956 377.501892,331.181885 351.202698,354.251373 
	C349.712219,352.099243 348.791382,350.232117 347.396973,348.838928 
	C332.692749,334.147705 317.912994,319.532104 302.981018,304.610291 
	C293.020111,294.495270 283.248016,284.649719 273.417725,274.862640 
	C272.525635,273.974487 271.259125,273.462372 270.289795,272.499084 
	C276.581696,266.486603 279.001709,259.105194 280.221344,250.989563 
	C321.894196,250.979279 363.081909,250.963318 404.269592,250.947357 
z"/>
<path fill="#0A9199" opacity="1.000000" stroke="none" 
	d="
M404.257385,250.493347 
	C363.081909,250.963318 321.894196,250.979279 280.107361,250.614761 
	C279.232758,242.399109 275.966125,235.821838 271.133362,229.669342 
	C297.559906,203.041534 323.835785,176.708298 350.127747,150.391159 
	C350.700287,149.818085 351.457336,149.429367 352.424011,149.100220 
	C370.108398,164.707413 383.962189,182.824677 392.635345,204.479034 
	C396.738586,214.723557 399.536865,225.490738 402.926422,236.021118 
	C403.366028,240.693848 403.805603,245.366592 404.257385,250.493347 
z"/>
<path fill="#243A43" opacity="1.000000" stroke="none" 
	d="
M303.154083,304.895630 
	C317.912994,319.532104 332.692749,334.147705 347.396973,348.838928 
	C348.791382,350.232117 349.712219,352.099243 351.202698,354.251373 
	C377.501892,331.181885 393.545563,303.829956 401.693481,271.242310 
	C401.437714,276.405334 401.517426,281.965759 400.287811,287.219788 
	C394.602417,311.513794 383.379639,333.237518 367.150482,352.014435 
	C352.609009,368.838715 335.194031,382.159607 314.639191,391.408508 
	C299.672089,398.143127 284.215668,403.040039 268.056244,404.556000 
	C255.657349,405.719177 243.026413,404.690704 230.513916,404.226135 
	C225.269684,404.031433 220.064865,402.775330 214.421356,401.999054 
	C211.817108,401.180603 209.633621,400.364899 207.422607,399.001740 
	C211.064499,395.668396 215.086136,393.240540 218.343826,390.036072 
	C234.479752,374.163574 250.442429,358.114380 266.410034,342.071564 
	C278.701172,329.722534 290.909149,317.290680 303.154083,304.895630 
z"/>
<path fill="#284149" opacity="1.000000" stroke="none" 
	d="
M403.219421,235.781876 
	C399.536865,225.490738 396.738586,214.723557 392.635345,204.479034 
	C383.962189,182.824677 370.108398,164.707413 352.278595,148.795410 
	C336.271027,130.780594 317.966614,116.874580 296.122070,108.157417 
	C286.013245,104.123436 275.384430,101.392464 264.991364,98.070755 
	C270.240845,98.515480 275.692780,98.208794 280.698761,99.557419 
	C291.995117,102.600700 303.070984,106.462440 314.617615,109.998032 
	C324.257446,115.766434 334.150391,120.734642 342.609772,127.496376 
	C352.522064,135.419449 361.186707,144.903473 370.694763,153.858398 
	C376.506073,162.689743 382.897491,170.951828 387.296539,180.165237 
	C392.562897,191.195007 396.127472,203.037323 400.705322,214.764893 
	C401.825226,221.848892 402.668823,228.695770 403.219421,235.781876 
z"/>
<path fill="#243A43" opacity="1.000000" stroke="none" 
	d="
M402.428528,268.962189 
	C402.234863,268.154205 402.354919,267.289246 402.727966,266.209045 
	C402.901337,266.964233 402.821777,267.934753 402.428528,268.962189 
z"/>
<path fill="#2C424B" opacity="1.000000" stroke="none" 
	d="
M223.740692,98.286118 
	C232.450546,97.363052 240.900650,96.723053 249.729477,96.585526 
	C250.077164,138.480255 250.046127,179.872513 249.647522,221.405228 
	C232.793381,223.334869 223.833710,231.565414 220.120941,248.006927 
	C218.759460,248.591370 217.598328,248.974823 216.816986,249.744019 
	C203.844406,262.515381 190.895218,275.310760 177.990036,288.150238 
	C162.269409,303.790833 146.436325,319.324615 131.031647,335.271423 
	C127.888481,338.525238 125.589973,339.380188 121.997040,337.001221 
	C117.953209,330.233887 113.454010,323.692810 109.956757,316.653900 
	C101.715759,300.067291 97.344856,282.352478 95.995796,263.445709 
	C93.369057,241.542358 97.091637,220.795975 103.779457,200.570587 
	C112.241226,174.980408 127.067459,153.337524 147.140503,135.480789 
	C169.031082,116.007179 194.609192,103.790009 223.740692,98.286118 
z"/>
<path fill="#283E46" opacity="1.000000" stroke="none" 
	d="
M122.032982,337.349792 
	C125.589973,339.380188 127.888481,338.525238 131.031647,335.271423 
	C146.436325,319.324615 162.269409,303.790833 177.990036,288.150238 
	C190.895218,275.310760 203.844406,262.515381 216.816986,249.744019 
	C217.598328,248.974823 218.759460,248.591370 220.154602,248.441116 
	C221.500397,253.832443 221.528549,259.214874 223.533325,263.717194 
	C230.781357,279.994751 252.981415,287.159027 270.166504,272.775635 
	C271.259125,273.462372 272.525635,273.974487 273.417725,274.862640 
	C283.248016,284.649719 293.020111,294.495270 302.981018,304.610291 
	C290.909149,317.290680 278.701172,329.722534 266.410034,342.071564 
	C250.442429,358.114380 234.479752,374.163574 218.343826,390.036072 
	C215.086136,393.240540 211.064499,395.668396 207.196228,398.729614 
	C198.226044,395.780365 189.200027,393.107788 180.741806,389.204712 
	C167.328110,383.014923 155.455368,374.329071 144.301392,364.145630 
	C136.690338,355.232788 129.379623,346.465546 122.032982,337.349792 
z"/>
<path fill="#02A7B0" opacity="1.000000" stroke="none" 
	d="
M250.015091,221.264771 
	C250.046127,179.872513 250.077164,138.480255 250.193542,96.642822 
	C254.896942,96.823112 259.515015,97.448601 264.562195,98.072418 
	C275.384430,101.392464 286.013245,104.123436 296.122070,108.157417 
	C317.966614,116.874580 336.271027,130.780594 351.982910,148.649841 
	C351.457336,149.429367 350.700287,149.818085 350.127747,150.391159 
	C323.835785,176.708298 297.559906,203.041534 270.826569,229.539734 
	C264.699036,224.207962 257.674591,221.970673 250.015091,221.264771 
z"/>
<path fill="none" opacity="1.000000" stroke="none" 
	d="
M249.647522,221.405228 
	C257.674591,221.970673 264.699036,224.207962 270.677734,229.836151 
	C275.966125,235.821838 279.232758,242.399109 279.622192,250.609070 
	C279.001709,259.105194 276.581696,266.486603 270.289795,272.499084 
	C252.981415,287.159027 230.781357,279.994751 223.533325,263.717194 
	C221.528549,259.214874 221.500397,253.832443 220.531662,248.419617 
	C223.833710,231.565414 232.793381,223.334869 249.647522,221.405228 
M262.156403,237.274292 
	C254.646271,231.623199 245.797653,231.204437 239.100082,236.183121 
	C232.436798,241.136307 229.860413,249.917664 232.823334,257.576904 
	C235.545166,264.612915 241.765640,269.062958 249.250900,269.284454 
	C257.229492,269.520538 263.011108,265.903442 266.563965,258.901093 
	C270.044922,252.040421 268.495392,244.276810 262.156403,237.274292 
z"/>
<path fill="#03AEB6" opacity="1.000000" stroke="none" 
	d="
M262.424347,237.530701 
	C268.495392,244.276810 270.044922,252.040421 266.563965,258.901093 
	C263.011108,265.903442 257.229492,269.520538 249.250900,269.284454 
	C241.765640,269.062958 235.545166,264.612915 232.823334,257.576904 
	C229.860413,249.917664 232.436798,241.136307 239.100082,236.183121 
	C245.797653,231.204437 254.646271,231.623199 262.424347,237.530701 
z"/>
</svg>